M48
;Layer_Color=9474304
;FILE_FORMAT=2:5
INCH
;TYPE=PLATED
T1F00S00C0.01181
T2F00S00C0.02800
T3F00S00C0.03543
T4F00S00C0.03937
T5F00S00C0.12205
%
T01
X0153543Y0070866
X0165354Y0094488
X0171260Y0106299
X0183071
X0200787Y0118110
X0212598
Y0141732
X0224409
X0218504Y0153543
X0206693
X0194882
X0200787Y0141732
X0165354
X0171260Y0153543
Y0129921
X0165354Y0118110
X0200787Y0094488
X0212598
X0224409
X0236220
X0248031
X0259842
X0271654
X0283465
X0295275
X0307086
X0301181Y0106299
X0289370
X0277559
X0265748
X0253937
X0242126
X0230315
Y0082677
X0242126
X0253937
X0265748
X0277559
X0289370
X0301181
X0307086Y0070866
X0295275
X0283465
X0271654
X0259842
X0248031
X0236220
Y0047244
X0248031
X0259842
X0271654
X0283465
X0295275
X0307086
X0301181Y0059055
X0289370
X0277559
X0265748
X0224409Y0047244
X0212598
X0200787
X0188976
X0177165
X0206693Y0059055
Y0082677
X0248031Y0118110
X0259842
X0271654
X0283465
X0295275
X0307086
X0301181Y0129921
X0289370
X0277559
X0265748
X0253937
X0271654Y0141732
X0283465
X0295275
X0307086
X0301181Y0153543
X0289370
X0277559
X0312992
X0324803
X0336614
X0348425
X0360236
X0372047
X0383858
X0395669
X0389764Y0141732
X0377953
X0366142
X0354331
X0342520
X0330709
X0318898
X0324803Y0129921
X0336614
X0348425
X0360236
X0372047
X0383858
X0395669
X0389764Y0118110
X0377953
X0366142
X0354331
X0342520
X0330709
X0318898
X0324803Y0106299
X0336614
X0348425
X0360236
X0372047
X0383858
X0395669
X0389764Y0094488
X0377953
X0366142
X0354331
X0342520
X0330709
X0318898
X0324803Y0082677
X0336614
X0348425
X0360236
X0372047
X0383858
X0395669
X0389764Y0070866
X0377953
X0366142
X0354331
X0342520
X0330709
X0318898
X0324803Y0059055
X0336614
X0348425
X0360236
X0372047
X0377953Y0047244
X0366142
X0354331
X0342520
X0330709
X0318898
X0312992Y0059055
Y0082677
Y0106299
Y0129921
X0318898Y0165354
X0330709
X0342520
X0354331
X0366142
X0377953
X0389764
X0395669Y0177165
X0383858
X0372047
X0360236
X0348425
X0336614
X0324803
X0312992
X0318898Y0188976
X0330709
X0342520
X0354331
X0366142
X0360236Y0200787
X0366142Y0212598
X0377953
X0383858Y0224409
X0372047
X0360236
X0348425
X0336614
X0324803
X0312992
X0318898Y0236220
X0330709
X0342520
X0354331
X0366142
X0377953
X0389764
X0383858Y0200787
X0336614
X0324803
X0312992
X0348425Y0248031
X0307086Y0236220
X0301181Y0224409
Y0200787
X0307086Y0188976
X0301181Y0177165
X0307086Y0165354
X0295275
X0248031
X0236220
X0224409
X0212598
X0200787
X0206693Y0177165
X0218504
X0230315
X0242126
X0248031Y0188976
X0259842
X0253937Y0200787
X0242126
X0230315
X0218504
X0206693
X0194882
X0183071
X0171260
X0177165Y0188976
X0165354
X0171260Y0177165
X0183071
X0194882
X0200787Y0188976
X0212598
X0224409
X0236220
X0224409Y0212598
X0230315Y0224409
X0242126
X0253937
X0259842Y0236220
X0248031
X0236220
X0224409
X0218504Y0248031
X0165354Y0236220
X0171260Y0224409
X0165354Y0212598
Y0165354
X0277559Y0200787
Y0224409
X0153543Y0236220
T02
X0266484Y0235409
T03
X0178295Y0094071
X0188295
Y0104071
X0178295
Y0114071
X0188295
Y0124071
X0178295
Y0134071
X0188295
Y0144071
X0178295
Y0154071
X0188295
X0219319Y0057457
X0229319
X0239319
X0249319
X0313835Y0245441
X0323835
X0333835
X0343835
X0353835
X0363835
X0373835
Y0255441
X0363835
X0353835
X0343835
X0333835
X0323835
X0313835
X0387941Y0231157
Y0221158
X0397941
Y0231157
X0303835Y0245441
Y0255441
X0293835
Y0245441
X0283835
Y0255441
X0273835
Y0245441
X0263835
Y0255441
X0253835
Y0245441
X0243835
Y0255441
X0233835
Y0245441
X0223835
Y0255441
X0213835
Y0245441
X0203835
Y0255441
X0193835
Y0245441
X0183835
Y0255441
X0188295Y0204071
Y0194071
Y0184071
Y0174071
Y0164071
X0178295
Y0174071
Y0184071
Y0194071
Y0204071
T04
X0329417Y0212929
X0339417Y0212968
X0349417
T05
X0164614Y0057358
X0189319Y0067201
X0392961Y0057358
Y0250272
X0189319Y0227831
X0164614Y0250272
M30
