G04*
G04 #@! TF.GenerationSoftware,Altium Limited,Altium Designer,18.1.9 (240)*
G04*
G04 Layer_Color=16711935*
%FSAX25Y25*%
%MOIN*%
G70*
G01*
G75*
%ADD11C,0.00394*%
%ADD14C,0.00787*%
%ADD41C,0.00591*%
%ADD42R,0.11496X0.02420*%
D11*
X0317567Y0218874D02*
X0331839D01*
X0361268Y0169661D02*
Y0196827D01*
X0317567Y0151945D02*
X0361268D01*
X0317567D02*
Y0218874D01*
X0361268Y0151945D02*
Y0169661D01*
X0331839Y0218874D02*
X0354181D01*
X0361268Y0196827D02*
Y0218874D01*
X0354181Y0218874D02*
X0361268Y0218874D01*
X0397921Y0181532D02*
Y0199524D01*
X0386425Y0181532D02*
Y0199524D01*
X0397921D01*
X0386425Y0181532D02*
X0397921D01*
X0309004Y0202535D02*
Y0218284D01*
X0284594Y0202535D02*
Y0218284D01*
Y0202535D02*
X0309004D01*
X0284594Y0218284D02*
X0309004D01*
X0267173Y0196433D02*
Y0210606D01*
X0275047Y0196433D02*
Y0210606D01*
X0267173Y0196433D02*
X0275047D01*
X0267173Y0210606D02*
X0275047D01*
X0380697Y0181532D02*
Y0199524D01*
X0369201Y0181532D02*
Y0199524D01*
X0380697D01*
X0369201Y0181532D02*
X0380697D01*
X0390206Y0186197D02*
X0393748D01*
Y0187968D01*
X0393158Y0188558D01*
X0390796D01*
X0390206Y0187968D01*
Y0186197D01*
X0393748Y0189739D02*
Y0190920D01*
Y0190329D01*
X0390206D01*
X0390796Y0189739D01*
X0300999Y0208836D02*
X0303098D01*
Y0210410D01*
X0302049D01*
X0303098D01*
Y0211984D01*
X0299950D02*
X0298900D01*
X0299425D01*
Y0208836D01*
X0299950Y0209360D01*
X0273078Y0208244D02*
X0269929D01*
Y0206670D01*
X0270454Y0206145D01*
X0272553D01*
X0273078Y0206670D01*
Y0208244D01*
X0272553Y0205096D02*
X0273078Y0204571D01*
Y0203521D01*
X0272553Y0202996D01*
X0272028D01*
X0271503Y0203521D01*
Y0204046D01*
Y0203521D01*
X0270979Y0202996D01*
X0270454D01*
X0269929Y0203521D01*
Y0204571D01*
X0270454Y0205096D01*
X0372981Y0186197D02*
X0376524D01*
Y0187968D01*
X0375933Y0188558D01*
X0373572D01*
X0372981Y0187968D01*
Y0186197D01*
X0376524Y0192101D02*
Y0189739D01*
X0374162Y0192101D01*
X0373572D01*
X0372981Y0191510D01*
Y0190329D01*
X0373572Y0189739D01*
D14*
X0274260Y0209425D02*
G03*
X0274260Y0209425I-0000394J0000000D01*
G01*
D41*
X0322685Y0166119D02*
Y0168415D01*
X0323144Y0168874D01*
X0324062D01*
X0324522Y0168415D01*
Y0166119D01*
X0325440Y0168874D02*
X0326358D01*
X0325899D01*
Y0166119D01*
X0325440Y0166578D01*
D42*
X0392173Y0182741D02*
D03*
X0374949Y0182741D02*
D03*
M02*
