G04*
G04 #@! TF.GenerationSoftware,Altium Limited,Altium Designer,18.1.9 (240)*
G04*
G04 Layer_Color=16711935*
%FSAX25Y25*%
%MOIN*%
G70*
G01*
G75*
%ADD11C,0.00394*%
%ADD14C,0.00787*%
%ADD16C,0.01000*%
%ADD40C,0.00600*%
D11*
X0150835Y0055390D02*
G03*
X0162646Y0043579I0011811J0000000D01*
G01*
Y0264051D02*
G03*
X0150835Y0252240I0000000J-0011811D01*
G01*
X0406740D02*
G03*
X0394929Y0264051I-0011811J0000000D01*
G01*
Y0043579D02*
G03*
X0406740Y0055390I0000000J0011811D01*
G01*
X0162646Y0043579D02*
X0394929D01*
X0406740Y0055390D02*
X0406740Y0252240D01*
X0162646Y0264051D02*
X0394929Y0264051D01*
X0150835Y0055390D02*
X0150835Y0252240D01*
D14*
X0164614Y0250272D02*
X0392961D01*
X0183835Y0250492D02*
Y0255441D01*
Y0245441D02*
Y0250492D01*
D16*
X0406740Y0253437D02*
Y0279716D01*
X0150835Y0253437D02*
Y0279716D01*
X0292283Y0278716D02*
X0406740D01*
X0150835D02*
X0262092D01*
X0400740Y0280716D02*
X0406740Y0278716D01*
X0400740Y0276716D02*
X0406740Y0278716D01*
X0150835D02*
X0156835Y0276716D01*
X0150835Y0278716D02*
X0156835Y0280716D01*
X0164614Y0292595D02*
X0170614Y0294595D01*
X0164614Y0292595D02*
X0170614Y0290595D01*
X0386961D02*
X0392961Y0292595D01*
X0386961Y0294595D02*
X0392961Y0292595D01*
X0164614D02*
X0262092D01*
X0292283D02*
X0392961D01*
X0164614Y0263483D02*
Y0293595D01*
X0392961Y0263483D02*
Y0293595D01*
X0132527Y0264051D02*
X0134528Y0258051D01*
X0130527D02*
X0132527Y0264051D01*
X0130527Y0049579D02*
X0132527Y0043579D01*
X0134528Y0049579D01*
X0132527Y0167311D02*
Y0264051D01*
Y0043579D02*
Y0137119D01*
X0131527Y0264051D02*
X0161449D01*
X0131527Y0043579D02*
X0161449D01*
D40*
X0267690Y0281116D02*
X0265691Y0280116D01*
X0263692Y0278116D01*
Y0276117D01*
X0264691Y0275117D01*
X0266691D01*
X0267690Y0276117D01*
Y0277117D01*
X0266691Y0278116D01*
X0263692D01*
X0273689Y0281116D02*
X0269690D01*
Y0278116D01*
X0271689Y0279116D01*
X0272689D01*
X0273689Y0278116D01*
Y0276117D01*
X0272689Y0275117D01*
X0270690D01*
X0269690Y0276117D01*
X0275688Y0275117D02*
Y0276117D01*
X0276688D01*
Y0275117D01*
X0275688D01*
X0280686Y0280116D02*
X0281686Y0281116D01*
X0283685D01*
X0284685Y0280116D01*
Y0276117D01*
X0283685Y0275117D01*
X0281686D01*
X0280686Y0276117D01*
Y0280116D01*
X0286684D02*
X0287684Y0281116D01*
X0289683D01*
X0290683Y0280116D01*
Y0276117D01*
X0289683Y0275117D01*
X0287684D01*
X0286684Y0276117D01*
Y0280116D01*
X0267690Y0294993D02*
X0263692D01*
Y0291995D01*
X0265691Y0292994D01*
X0266691D01*
X0267690Y0291995D01*
Y0289995D01*
X0266691Y0288996D01*
X0264691D01*
X0263692Y0289995D01*
X0269690Y0293994D02*
X0270690Y0294993D01*
X0272689D01*
X0273689Y0293994D01*
Y0292994D01*
X0272689Y0291995D01*
X0273689Y0290995D01*
Y0289995D01*
X0272689Y0288996D01*
X0270690D01*
X0269690Y0289995D01*
Y0290995D01*
X0270690Y0291995D01*
X0269690Y0292994D01*
Y0293994D01*
X0270690Y0291995D02*
X0272689D01*
X0275688Y0288996D02*
Y0289995D01*
X0276688D01*
Y0288996D01*
X0275688D01*
X0280686Y0293994D02*
X0281686Y0294993D01*
X0283685D01*
X0284685Y0293994D01*
Y0289995D01*
X0283685Y0288996D01*
X0281686D01*
X0280686Y0289995D01*
Y0293994D01*
X0286684D02*
X0287684Y0294993D01*
X0289683D01*
X0290683Y0293994D01*
Y0289995D01*
X0289683Y0288996D01*
X0287684D01*
X0286684Y0289995D01*
Y0293994D01*
X0130129Y0142718D02*
Y0138719D01*
X0133127D01*
X0132128Y0140719D01*
Y0141718D01*
X0133127Y0142718D01*
X0135127D01*
X0136127Y0141718D01*
Y0139719D01*
X0135127Y0138719D01*
X0130129Y0148716D02*
X0131128Y0146717D01*
X0133127Y0144717D01*
X0135127D01*
X0136127Y0145717D01*
Y0147716D01*
X0135127Y0148716D01*
X0134127D01*
X0133127Y0147716D01*
Y0144717D01*
X0136127Y0150715D02*
X0135127D01*
Y0151715D01*
X0136127D01*
Y0150715D01*
X0131128Y0155714D02*
X0130129Y0156713D01*
Y0158713D01*
X0131128Y0159713D01*
X0135127D01*
X0136127Y0158713D01*
Y0156713D01*
X0135127Y0155714D01*
X0131128D01*
Y0161712D02*
X0130129Y0162712D01*
Y0164711D01*
X0131128Y0165711D01*
X0135127D01*
X0136127Y0164711D01*
Y0162712D01*
X0135127Y0161712D01*
X0131128D01*
M02*
